<svg xmlns="http://www.w3.org/2000/svg" width="14" height="14" viewBox="0 0 14 14" fill="none">
  <path d="M5.83268 3.49935H8.16602C9.33268 3.49935 9.33268 2.91602 9.33268 2.33268C9.33268 1.16602 8.74935 1.16602 8.16602 1.16602H5.83268C5.24935 1.16602 4.66602 1.16602 4.66602 2.33268C4.66602 3.49935 5.24935 3.49935 5.83268 3.49935Z" stroke="#1E2224" stroke-miterlimit="10" stroke-linecap="round" stroke-linejoin="round"/>
  <path d="M8.16667 12.834H5.25C2.33333 12.834 1.75 11.6674 1.75 9.33404V5.83404C1.75 3.17404 2.72417 2.4507 4.66667 2.3457" stroke="#1E2224" stroke-miterlimit="10" stroke-linecap="round" stroke-linejoin="round"/>
  <path d="M9.33398 2.3457C11.2765 2.4507 12.2507 3.1682 12.2507 5.83404V8.7507" stroke="#1E2224" stroke-miterlimit="10" stroke-linecap="round" stroke-linejoin="round"/>
  <path d="M8.75 11.084V9.33398H10.5" stroke="#1E2224" stroke-miterlimit="10" stroke-linecap="round" stroke-linejoin="round"/>
  <path d="M12.2501 12.8341L8.77344 9.35742" stroke="#1E2224" stroke-miterlimit="10" stroke-linecap="round" stroke-linejoin="round"/>
</svg>